<?xml version="1.0" encoding="utf-8"?>
<!-- Generator: Adobe Illustrator 18.1.1, SVG Export Plug-In . SVG Version: 6.00 Build 0)  -->
<!DOCTYPE svg PUBLIC "-//W3C//DTD SVG 1.1//EN" "http://www.w3.org/Graphics/SVG/1.1/DTD/svg11.dtd">
<svg version="1.1" id="Layer_1" xmlns="http://www.w3.org/2000/svg" xmlns:xlink="http://www.w3.org/1999/xlink" x="0px" y="0px"
	 width="214.8px" height="109.1px" viewBox="0 0 214.8 109.1" style="enable-background:new 0 0 214.8 109.1;" xml:space="preserve"
	>
<path style="fill:#333333;" d="M86.4,89l4.8,5.6c-12.1,10.2-27.2,14.4-39,14.4C21.1,109.1,0,83.6,0,53.9C0,25,20,0,50.3,0
	c8.4,0,16.3,1.9,22.9,5.6V1.8h7.2v21.6C76,13.4,64,7.2,50.3,7.2C24.6,7.2,7.2,28.7,7.2,53.9c0,26.2,18.4,48,45,48
	C63,101.9,75.5,98.3,86.4,89z M73.2,41.9V30.5c-1-8-10.3-14.3-22.9-14.3c-20.4,0-34.1,16.6-34.1,37.7c0,21.7,14.5,39,36,39
	c9.2,0,20.8-4.5,30.1-12.3l3,7.3c-10.6,9-22.6,12.4-33.1,12.4c-25.9,0-43.3-20.9-43.3-46.3c0-24.6,16.4-45,41.4-45
	c15.7,0,28.6,8,30.1,20.6v12.4H73.2z M82.1,41.9V1.8h7.3v40.1H82.1z"/>
<path style="fill:#333333;" d="M177.1,86.5h9.5l-4-12.1c-13.2-3.1-25.1-5.3-35.3-6.4l-3.6,7.9c-9.4,20.4-20,33-36.6,32.9
	c-12.4-0.1-25.1-9.5-25.1-25c0-20.2,19.1-32.9,49.8-32.9c1.7,0,3.6,0.1,5.4,0.1l23.3-50.9l6.6,3L142,58.7c-3.6-0.2-7-0.4-10.1-0.4
	c-27.1,0-42.5,10.6-42.5,25.6c0,10.8,9,17.6,17.9,17.8c12.2,0.1,21.4-10.1,30-28.7l5.6-12.5c12.8,1,28.2,3.6,45.4,7.9l8.3,25.4
	h-19.4V86.5z M141.2,60.4l-5.4,11.9c-8.6,18.4-17,27.8-28.6,27.7c-8.4-0.1-16.2-6-16.2-16.1c0-13.8,14.4-23.9,40.8-23.9
	C134.8,60,137.9,60.1,141.2,60.4z M129.1,69.2l0.8-2c-21.7,0.5-31.7,7.9-31.7,16.7c0,5.4,4.1,8.8,9.1,8.9
	C114.7,92.9,121.6,85.8,129.1,69.2z M143.6,58.9l24.1-53l19.8,60.6C171.1,62.4,156.1,59.9,143.6,58.9z M176.8,56.5l-10.1-30.6
	l-12.2,26.8C161.4,53.5,168.8,54.8,176.8,56.5z M214.8,93.8h-16.4L168.8,3.4l6.8-2.4l28,85.6h11.2V93.8z M177.1,102.7v-7.2h37.7v7.2
	H177.1z"/>
</svg>
