<?xml version="1.0" encoding="utf-8"?>
<!-- Generator: Adobe Illustrator 18.1.1, SVG Export Plug-In . SVG Version: 6.00 Build 0)  -->
<!DOCTYPE svg PUBLIC "-//W3C//DTD SVG 1.1//EN" "http://www.w3.org/Graphics/SVG/1.1/DTD/svg11.dtd">
<svg version="1.1" id="Layer_2" xmlns="http://www.w3.org/2000/svg" xmlns:xlink="http://www.w3.org/1999/xlink" x="0px" y="0px"
	 width="151px" height="51.1px" viewBox="0 0 151 51.1" style="enable-background:new 0 0 151 51.1;" xml:space="preserve">
<g>
	<path style="fill:#333333;" d="M45.5,29.8c-1.3,2.4-2.8,4.6-4.5,6.6s-3.5,3.7-5.5,5.1c-2,1.4-4,2.5-6.1,3.3
		c-2.1,0.8-4.2,1.2-6.4,1.2c-3.2,0-6.1-0.6-8.9-1.8c-2.8-1.2-5.2-2.8-7.4-4.9c-2.1-2.1-3.8-4.5-5-7.3C0.6,29.2,0,26.2,0,23
		c0-3.2,0.6-6.3,1.8-9.1C3,11.1,4.6,8.7,6.7,6.6C8.7,4.6,11.2,3,14,1.8C16.8,0.6,19.8,0,23,0c2,0,4,0.3,5.9,0.9
		c1.9,0.6,3.6,1.4,5.3,2.5c1.7,1.1,3.3,2.3,4.8,3.7c1.5,1.4,3,3,4.4,4.6L37.2,14c-1.7-2.5-3.8-4.4-6.3-5.8S25.7,6.2,23,6.2
		c-2.3,0-4.4,0.5-6.4,1.4c-2,0.9-3.8,2.2-5.2,3.7c-1.5,1.5-2.7,3.3-3.5,5.4c-0.9,2-1.3,4.2-1.3,6.4c0,2.2,0.4,4.4,1.3,6.4
		c0.9,2,2.1,3.8,3.6,5.3c1.5,1.5,3.3,2.8,5.3,3.7c2,0.9,4.1,1.4,6.4,1.4c2.9,0,5.6-0.7,8-2.2c2.4-1.5,4.5-3.4,6.3-5.8l3.7,0.7
		L45.5,29.8z"/>
</g>
<g>
	<path style="fill:#333333;" d="M82,45.1l-6.4-14.8L66.8,9.2c-2.5,6-5.1,12-7.6,18c-2.5,6-5.1,12-7.6,17.9h-6.8l19-44.4h6.1L89,45.1
		H82z"/>
</g>
<g>
	<path style="fill:#333333;" d="M94.1,9.4v13.1h-3.1V9.4h-3.2V6.5h3.2V0.7h3.1v5.8h3.7v2.9H94.1z"/>
	<path style="fill:#333333;" d="M116.3,16.8c-1,1.9-2.1,3.4-3.6,4.5s-3.1,1.6-5,1.6c-1.2,0-2.3-0.2-3.4-0.7c-1.1-0.4-2-1-2.8-1.8
		c-0.8-0.8-1.4-1.7-1.9-2.7s-0.7-2.2-0.7-3.4c0-1.2,0.2-2.3,0.7-3.4c0.5-1.1,1.1-2,1.9-2.7c0.8-0.8,1.7-1.4,2.8-1.8
		c1.1-0.5,2.2-0.7,3.4-0.7c0.9,0,1.8,0.1,2.6,0.4c0.9,0.3,1.6,0.7,2.4,1.2s1.4,1.2,2,1.9c0.6,0.8,1.1,1.6,1.5,2.6h-3.4
		c-0.5-1-1.2-1.8-2.1-2.4c-0.9-0.6-1.9-0.8-2.9-0.8c-0.8,0-1.5,0.1-2.2,0.4c-0.7,0.3-1.3,0.7-1.8,1.2c-0.5,0.5-0.9,1.1-1.2,1.8
		c-0.3,0.7-0.4,1.4-0.4,2.2s0.1,1.5,0.4,2.2c0.3,0.7,0.7,1.3,1.2,1.8c0.5,0.5,1.1,0.9,1.8,1.2c0.7,0.3,1.4,0.4,2.2,0.4
		c1,0,2-0.3,2.9-0.8c0.9-0.5,1.6-1.3,2.2-2.3H116.3z"/>
	<path style="fill:#333333;" d="M130.4,22.5v-9c0-0.7-0.1-1.3-0.3-2s-0.5-1.3-1-1.7c-0.4-0.4-0.9-0.7-1.3-0.9
		c-0.5-0.2-1-0.3-1.6-0.3c-0.6,0-1.1,0.1-1.6,0.3c-0.5,0.2-0.9,0.5-1.3,0.9c-0.5,0.4-0.8,1-1,1.7c-0.2,0.7-0.3,1.3-0.3,2v9.1h-3.1
		V0.7h3.1l0.1,6.4c0.6-0.4,1.2-0.8,2-1c0.7-0.3,1.5-0.4,2.2-0.4c1.2,0,2.2,0.2,3.2,0.6c0.9,0.4,1.7,0.9,2.3,1.6
		c0.6,0.7,1.1,1.5,1.4,2.5c0.3,1,0.5,2,0.5,3.2v9H130.4z"/>
</g>
<g>
	<path style="fill:#333333;" d="M90.6,45.1V23.3h3.1v21.8H90.6z"/>
	<path style="fill:#333333;" d="M113.3,36.9c0,1.2-0.2,2.3-0.7,3.3c-0.5,1-1.1,2-1.9,2.7c-0.8,0.8-1.7,1.4-2.7,1.9
		c-1.1,0.5-2.2,0.7-3.3,0.7c-1.1,0-2.2-0.2-3.3-0.7c-1-0.5-1.9-1.1-2.7-1.8c-0.8-0.8-1.4-1.7-1.8-2.7c-0.5-1-0.7-2.1-0.7-3.3
		c0-1.2,0.2-2.3,0.6-3.3c0.4-1.1,1-2,1.8-2.8s1.7-1.4,2.7-1.9c1-0.5,2.1-0.7,3.3-0.7c1.2,0,2.3,0.2,3.3,0.7c1,0.5,2,1.1,2.7,1.9
		c0.8,0.8,1.4,1.7,1.9,2.7C113.1,34.6,113.3,35.7,113.3,36.9z M110.2,36.8c0-0.8-0.1-1.5-0.4-2.1c-0.3-0.7-0.7-1.3-1.2-1.8
		c-0.5-0.5-1.1-0.9-1.7-1.2c-0.7-0.3-1.4-0.4-2.1-0.4c-0.8,0-1.5,0.2-2.2,0.5c-0.7,0.3-1.2,0.7-1.7,1.3c-0.5,0.5-0.9,1.1-1.1,1.8
		c-0.3,0.7-0.4,1.4-0.4,2.2c0,0.8,0.1,1.5,0.4,2.1c0.3,0.7,0.7,1.3,1.2,1.8s1.1,0.9,1.7,1.2c0.7,0.3,1.4,0.5,2.1,0.5
		c0.8,0,1.5-0.2,2.2-0.5c0.7-0.3,1.2-0.7,1.7-1.2c0.5-0.5,0.9-1.1,1.1-1.8S110.2,37.6,110.2,36.8z"/>
	<path style="fill:#333333;" d="M128,45.1v-9c0-0.7-0.1-1.3-0.3-2c-0.2-0.7-0.5-1.3-1-1.7c-0.4-0.4-0.9-0.7-1.3-0.9
		c-0.5-0.2-1-0.3-1.6-0.3c-0.6,0-1.1,0.1-1.6,0.3c-0.5,0.2-0.9,0.5-1.3,0.9c-0.5,0.4-0.8,1-1,1.7s-0.3,1.3-0.3,2v9.1h-3.1V28.7h3.1
		l0.1,1.1c0.6-0.5,1.2-0.8,2-1.1c0.7-0.3,1.5-0.4,2.2-0.4c1.2,0,2.2,0.2,3.1,0.6s1.7,0.9,2.3,1.6c0.6,0.7,1.1,1.5,1.4,2.5
		s0.5,2,0.5,3.2v9H128z"/>
	<path style="fill:#333333;" d="M151,42.2c0,1-0.1,2.1-0.3,3.1c-0.2,1-0.6,2-1.2,2.8c-0.4,0.5-0.8,0.9-1.3,1.3c-0.5,0.4-1,0.7-1.6,1
		c-0.6,0.3-1.2,0.5-1.8,0.6c-0.6,0.1-1.2,0.2-1.8,0.2c-1,0-2-0.1-2.9-0.4c-0.9-0.3-1.7-0.7-2.5-1.3c-0.8-0.6-1.4-1.3-2-2.1
		c-0.6-0.8-1-1.8-1.3-2.9h3.3c0.5,1.2,1.2,2.2,2.1,2.8c0.9,0.7,2,1,3.2,1c1.5,0,2.7-0.4,3.5-1.3s1.3-2,1.4-3.5
		c-0.7,0.7-1.5,1.2-2.5,1.5c-1,0.3-1.9,0.5-2.9,0.5c-1.2,0-2.3-0.2-3.3-0.7c-1-0.4-1.9-1-2.7-1.8c-0.8-0.8-1.4-1.7-1.8-2.7
		c-0.4-1-0.7-2.1-0.7-3.3c0-1.2,0.2-2.3,0.7-3.3c0.4-1.1,1-2,1.8-2.8c0.8-0.8,1.7-1.4,2.7-1.9c1-0.5,2.2-0.7,3.4-0.7
		c1,0,2,0.2,2.9,0.5c0.9,0.4,1.8,0.9,2.5,1.6v-1.7h3.1V42.2z M148.1,36.9c0-0.8-0.1-1.5-0.4-2.2c-0.3-0.7-0.7-1.3-1.2-1.8
		c-0.5-0.5-1.1-0.9-1.8-1.2c-0.7-0.3-1.4-0.5-2.2-0.5c-0.8,0-1.5,0.1-2.2,0.4c-0.7,0.3-1.2,0.7-1.7,1.2c-0.5,0.5-0.9,1.1-1.1,1.8
		c-0.3,0.7-0.4,1.4-0.4,2.2c0,0.8,0.1,1.5,0.4,2.2c0.3,0.7,0.7,1.3,1.1,1.8s1,0.9,1.7,1.2s1.4,0.5,2.2,0.5c0.8,0,1.5-0.2,2.1-0.5
		c0.7-0.3,1.3-0.7,1.8-1.2c0.5-0.5,0.9-1.1,1.2-1.8C147.9,38.4,148.1,37.7,148.1,36.9z"/>
</g>
</svg>
