<?xml version="1.0" encoding="utf-8"?>
<!-- Generator: Adobe Illustrator 18.1.1, SVG Export Plug-In . SVG Version: 6.00 Build 0)  -->
<!DOCTYPE svg PUBLIC "-//W3C//DTD SVG 1.1//EN" "http://www.w3.org/Graphics/SVG/1.1/DTD/svg11.dtd">
<svg version="1.1" id="Layer_1" xmlns="http://www.w3.org/2000/svg" xmlns:xlink="http://www.w3.org/1999/xlink" x="0px" y="0px"
	 width="188.9px" height="55.2px" viewBox="0 0 188.9 55.2" style="enable-background:new 0 0 188.9 55.2;" xml:space="preserve">
<g>
	<path style="fill:#049E79;" d="M28.8,54.4L19.7,36l-3.9,4.2v6.5c0,1.2,0.1,1.3,1.2,1.4l4.3,0.5v5.7H0.1v-5.7l3.6-0.5
		c1-0.1,1.2-0.4,1.2-1.4v-38c0-0.8-0.2-1.3-0.9-1.5L0,5.8L0.8,0h15v30.7l13.2-13.9h9.9v5.7l-3.7,0.7c-0.9,0.1-1.2,0.4-1.8,1.1
		l-5.1,5.4l9.2,17.2c0.5,1,1,1.2,2.2,1.3l3.2,0.5v5.6H28.8z"/>
	<path style="fill:#8E8E8E;" d="M77.2,51.6c-4.5,2.2-9.4,3.7-14.8,3.7c-13.9,0-18.6-8.6-18.6-19.9c0-13,8-19.2,17.9-19.2
		c9.5,0,15.8,5,15.8,17.4c0,0.9-0.1,3.4-0.1,4.8h-22c0.4,5.1,2.6,8.5,8.5,8.5c2.8,0,5.8-0.6,10.7-2.4L77.2,51.6z M66.8,31.5
		c-0.1-6-2.4-7.6-5.4-7.6c-3.1,0-5.6,1.7-6,7.6H66.8z"/>
	<path style="fill:#8E8E8E;" d="M109.2,52.3c-3.1,1.5-7.6,2.9-11.7,2.9c-8.6,0-11.8-3.5-11.8-11.6V24.8c0-0.4,0-0.7-0.6-0.7h-5v-6.4
		c6.3-0.7,8.9-3.9,9.6-11.7h6.8v10.2c0,0.5,0,0.7,0.6,0.7h10.2v7.2H96.5v17.2c0,4.2,1,5.9,4.9,5.9c2,0,4.1-0.5,5.8-1.2L109.2,52.3z"
		/>
	<path style="fill:#8E8E8E;" d="M143,51.7c-3.3,2-8.4,3.5-13.7,3.5c-13,0-18.9-8.1-18.9-19.1c0-13.5,8.2-20,19.7-20
		c5.6,0,10.6,1.6,12.8,3v11.3l-7.7-0.4l-0.9-4.8c-0.1-0.5-0.2-0.9-0.9-1.2c-0.9-0.3-2.2-0.5-3.7-0.5c-4.3,0-8,3-8,11.4
		c0,9.4,4.2,12,9.3,12c3.6,0,6.8-1.2,9-2.1L143,51.7z"/>
	<path style="fill:#8E8E8E;" d="M173.3,54.4V30.9c0-2.2-0.2-6.1-3.8-6.1c-2.7,0-5.7,1.4-7.5,2.7v19.3c0,1.2,0.1,1.3,1.2,1.4l3.5,0.5
		v5.7h-19.9v-5.7l3.2-0.5c1-0.1,1.2-0.4,1.2-1.4v-38c0-0.8-0.2-1.3-0.9-1.5l-4-1.4L147,0h14.8v20.4l0.4,0.1c3.2-2.7,7-4.3,11.5-4.3
		c7.6,0,10.4,4.2,10.4,11.7v18.9c0,1.2,0.1,1.3,1.2,1.4l3.6,0.5v5.7H173.3z"/>
</g>
</svg>
